<svg width="1280" height="720" xmlns="http://www.w3.org/2000/svg" xmlns:xlink="http://www.w3.org/1999/xlink" overflow="hidden"><defs><clipPath id="clip0"><rect x="0" y="0" width="1280" height="720"/></clipPath><clipPath id="clip1"><rect x="-40" y="35" width="105" height="105"/></clipPath><clipPath id="clip2"><rect x="-40" y="35" width="105" height="105"/></clipPath><clipPath id="clip3"><rect x="-40" y="35" width="105" height="105"/></clipPath><clipPath id="clip4"><rect x="958" y="156" width="280" height="280"/></clipPath><clipPath id="clip5"><rect x="958" y="156" width="280" height="280"/></clipPath><clipPath id="clip6"><rect x="958" y="156" width="280" height="280"/></clipPath><clipPath id="clip7"><rect x="-45" y="171" width="203" height="203"/></clipPath><clipPath id="clip8"><rect x="-45" y="171" width="204" height="204"/></clipPath><clipPath id="clip9"><rect x="-45" y="171" width="204" height="204"/></clipPath><clipPath id="clip10"><rect x="481" y="209" width="195" height="194"/></clipPath><clipPath id="clip11"><rect x="481" y="209" width="195" height="195"/></clipPath><clipPath id="clip12"><rect x="481" y="209" width="195" height="195"/></clipPath><clipPath id="clip13"><rect x="656" y="178" width="195" height="194"/></clipPath><clipPath id="clip14"><rect x="656" y="178" width="195" height="195"/></clipPath><clipPath id="clip15"><rect x="656" y="178" width="195" height="195"/></clipPath><clipPath id="clip16"><rect x="754" y="218" width="257" height="258"/></clipPath><clipPath id="clip17"><rect x="754" y="218" width="257" height="258"/></clipPath><clipPath id="clip18"><rect x="754" y="218" width="257" height="258"/></clipPath><clipPath id="clip19"><rect x="171" y="153" width="280" height="280"/></clipPath><clipPath id="clip20"><rect x="171" y="153" width="280" height="280"/></clipPath><clipPath id="clip21"><rect x="171" y="153" width="280" height="280"/></clipPath><clipPath id="clip22"><rect x="269" y="231" width="258" height="257"/></clipPath><clipPath id="clip23"><rect x="269" y="231" width="258" height="257"/></clipPath><clipPath id="clip24"><rect x="269" y="231" width="258" height="257"/></clipPath></defs><g clip-path="url(#clip0)"><rect x="0" y="0" width="1280" height="720" fill="#4EA2E8"/><path d="M499.016 558.852C439.259 517.507 372.782 483.807 419.752 361.569 466.723 239.33 782.07 189.915 1003.31 286.078 1066.41 377.222 862.342 564.176 778.292 609.638 694.243 655.101 558.772 600.197 499.016 558.852Z" fill="#1EB454" fill-rule="evenodd"/><path d="M1151.12 237.074C1223.25 228.265 1295.33 209.276 1341.45 331.836 1387.57 454.396 1184.75 700.868 955.515 776.015 847.799 749.828 876.071 474.519 908.673 384.695 941.275 294.872 1078.99 245.884 1151.12 237.074Z" fill="#72CA36" fill-rule="evenodd"/><path d="M149.001 420.303C116.276 387.783 78.4964 359.289 121.517 288.143 164.538 216.997 367.15 221.366 494.672 306.199 523.917 370.217 375.479 464.247 317.867 483.265 260.255 502.282 181.726 452.823 149.001 420.303Z" fill="#24D664" fill-rule="evenodd"/><path d="M-38.8382 362.082C-54.3282 320.78-75.7945 280.972-10.3266 236.17 55.1413 191.367 229.049 275.701 306 400.197 306 467.521 140.087 490.334 82.6137 483.981 25.1406 477.629-23.3482 403.384-38.8382 362.082Z" fill="#12C84F" fill-rule="evenodd"/><path d="M7 295C438.667 403 851.333 275 1287 349L1287 667 7 667 7 295Z" fill="#41A818" fill-rule="evenodd"/><g clip-path="url(#clip1)"><g clip-path="url(#clip2)"><g clip-path="url(#clip3)"><path d="M85.5312 52.3906C85.2031 52.3906 84.7656 52.3906 84.4375 52.3906 84.4375 52.3906 84.4375 52.3906 84.4375 52.3906 84.4375 47.0312 81.8125 42.1094 77.5469 39.0469 73.1719 35.9844 67.5938 35.2188 62.5625 36.9688 58.4062 28.875 49.2188 24.7188 40.4688 26.7969 31.7188 28.875 25.375 36.75 25.375 45.8281 25.375 45.8281 25.375 45.9375 25.375 46.0469 19.3594 45.0625 13.3438 47.5781 9.625 52.3906 6.01562 57.3125 5.35938 63.7656 7.875 69.2344 10.5 74.7031 15.9688 78.3125 21.9844 78.6406L21.9844 78.75 85.4219 78.75C92.6406 78.75 98.5469 72.8438 98.5469 65.625 98.5469 58.4062 92.75 52.3906 85.5312 52.3906Z" fill="#8CC3F0" transform="matrix(-1 0 0 1 65 35)"/></g></g></g><path d="M1193.43 101.888C1193.12 101.888 1192.69 101.888 1192.38 101.888 1192.38 101.888 1192.38 101.888 1192.38 101.888 1192.38 96.7824 1189.84 92.0934 1185.72 89.1758 1181.5 86.2583 1176.12 85.5289 1171.26 87.1961 1167.25 79.4854 1158.37 75.5258 1149.93 77.5055 1141.48 79.4854 1135.35 86.9876 1135.35 95.6362 1135.35 95.6362 1135.35 95.7403 1135.35 95.8445 1129.55 94.9068 1123.74 97.3033 1120.15 101.888 1116.66 106.577 1116.03 112.725 1118.46 117.935 1120.99 123.145 1126.27 126.583 1132.08 126.896L1132.08 127 1193.33 127C1200.3 127 1206 121.373 1206 114.496 1206 107.619 1200.4 101.888 1193.43 101.888Z" fill="#8CC3F0" fill-rule="evenodd"/><path d="M1069 94.5C1069 78.2076 1082.43 65 1099 65 1115.57 65 1129 78.2076 1129 94.5 1129 110.792 1115.57 124 1099 124 1082.43 124 1069 110.792 1069 94.5Z" fill="#8CC3F0" fill-rule="evenodd"/><path d="M1055 111.5C1055 102.94 1061.94 96 1070.5 96 1079.06 96 1086 102.94 1086 111.5 1086 120.06 1079.06 127 1070.5 127 1061.94 127 1055 120.06 1055 111.5Z" fill="#8CC3F0" fill-rule="evenodd"/><rect x="1069" y="115" width="81" height="12" fill="#8CC3F0"/><path d="M1115 103.5C1115 94.9396 1122.16 88 1131 88 1139.84 88 1147 94.9396 1147 103.5 1147 112.06 1139.84 119 1131 119 1122.16 119 1115 112.06 1115 103.5Z" fill="#8CC3F0" fill-rule="evenodd"/><path d="M1105 92.5C1105 80.0736 1115.07 70 1127.5 70 1139.93 70 1150 80.0736 1150 92.5 1150 104.926 1139.93 115 1127.5 115 1115.07 115 1105 104.926 1105 92.5Z" fill="#8CC3F0" fill-rule="evenodd"/><rect x="470" y="171" width="234" height="15" fill="#8CC3F0"/><path d="M458 174.5C458 168.149 463.373 163 470 163 476.627 163 482 168.149 482 174.5 482 180.851 476.627 186 470 186 463.373 186 458 180.851 458 174.5Z" fill="#8CC3F0" fill-rule="evenodd"/><path d="M685 166.5C685 155.73 693.73 147 704.5 147 715.27 147 724 155.73 724 166.5 724 177.27 715.27 186 704.5 186 693.73 186 685 177.27 685 166.5Z" fill="#8CC3F0" fill-rule="evenodd"/><path d="M473 166.5C473 155.73 481.954 147 493 147 504.046 147 513 155.73 513 166.5 513 177.27 504.046 186 493 186 481.954 186 473 177.27 473 166.5Z" fill="#8CC3F0" fill-rule="evenodd"/><path d="M497 154C497 136.879 512.67 123 532 123 551.33 123 567 136.879 567 154 567 171.121 551.33 185 532 185 512.67 185 497 171.121 497 154Z" fill="#8CC3F0" fill-rule="evenodd"/><path d="M545 144C545 122.461 564.252 105 588 105 611.748 105 631 122.461 631 144 631 165.539 611.748 183 588 183 564.252 183 545 165.539 545 144Z" fill="#8CC3F0" fill-rule="evenodd"/><path d="M599 156C599 141.641 611.76 130 627.5 130 643.24 130 656 141.641 656 156 656 170.359 643.24 182 627.5 182 611.76 182 599 170.359 599 156Z" fill="#8CC3F0" fill-rule="evenodd"/><path d="M628 148.5C628 129.998 642.998 115 661.5 115 680.002 115 695 129.998 695 148.5 695 167.002 680.002 182 661.5 182 642.998 182 628 167.002 628 148.5Z" fill="#8CC3F0" fill-rule="evenodd"/><path d="M863.827 493.911C865.906 495.421 866.368 498.33 864.859 500.409L730.898 684.94C729.389 687.02 726.48 687.482 724.401 685.972L724.401 685.972C722.321 684.463 721.859 681.553 723.369 679.474L857.33 494.943C858.839 492.864 861.748 492.402 863.827 493.911Z" fill="#184D47" fill-rule="evenodd"/><path d="M644.612 422.695C647.495 423.613 649.088 426.694 648.17 429.576L579.488 645.285C578.57 648.167 575.49 649.76 572.607 648.842L572.607 648.842C569.724 647.924 568.132 644.843 569.049 641.961L637.731 426.253C638.649 423.37 641.73 421.777 644.612 422.695Z" fill="#52D31F" fill-rule="evenodd"/><path d="M624.5 398C627.538 398 630 400.462 630 403.5L630 629.5C630 632.538 627.538 635 624.5 635L624.5 635C621.462 635 619 632.538 619 629.5L619 403.5C619 400.462 621.462 398 624.5 398Z" fill="#52D31F" fill-rule="evenodd"/><g clip-path="url(#clip4)"><g clip-path="url(#clip5)"><g clip-path="url(#clip6)"><path d="M1196.58 251.667C1193.08 240 1185.5 230.083 1175 223.958 1175 223.083 1175 222.208 1175 221.333 1175.29 201.5 1158.96 185.167 1138.83 185.167 1132.71 185.167 1127.17 186.625 1122.21 189.25 1115.5 179.625 1104.71 173.5 1092.17 173.5 1076.12 173.5 1062.42 184 1057.46 198.583 1052.21 195.667 1046.08 193.917 1039.67 193.917 1019.54 193.917 1003.21 210.25 1003.21 230.375 1003.21 237.958 1005.54 244.958 1009.62 250.792 990.667 255.75 976.958 272.667 976.958 293.083 976.958 317.292 996.5 336.833 1020.71 336.833 1024.21 336.833 1027.71 336.25 1031.21 335.667 1045.21 342.083 1076.12 360.75 1077.58 382.042L1076.42 409.75C1076.42 411.208 1075.83 412.667 1074.67 413.833L1072.04 416.458C1070.29 418.5 1071.46 421.417 1074.08 421.417L1106.17 421.417C1108.5 421.417 1109.67 419.083 1108.79 417.042 1108.79 417.042 1107.33 414.125 1106.46 413.25 1105.58 412.083 1104.71 410.917 1104.71 409.167L1103.54 373.875C1103.54 373.583 1103.83 373.292 1103.83 373.292 1106.17 362.792 1120.17 355.792 1135.04 348.5 1149.92 341.208 1167.42 332.458 1172.96 317.292 1176.46 318.458 1180.25 319.333 1184.33 319.333 1203.58 319.333 1219.33 303.583 1219.33 284.333 1219.04 269.458 1209.71 256.625 1196.58 251.667ZM1091.58 340.625C1090.71 333.333 1088.96 324.583 1085.46 316.125 1092.75 315.25 1099.46 312.917 1105.29 309.417 1099.17 319.917 1094.5 331.292 1091.58 340.625ZM1047.54 327.5C1052.79 323.417 1057.17 317.875 1060.38 311.75 1063 312.917 1065.62 314.083 1068.54 314.667 1076.12 327.208 1077.58 341.5 1077.58 350.542 1068.25 340.625 1056.29 332.75 1047.54 327.5ZM1128.33 335.375C1119.88 339.458 1111.12 343.833 1104.12 349.083 1107.92 337.125 1114.62 319.042 1125.12 305.917 1132.42 310.583 1141.17 313.208 1150.5 313.208 1153.42 313.208 1156.04 312.917 1158.67 312.333 1155.46 321.375 1144.08 327.5 1128.33 335.375Z" fill="#0E9039"/></g></g></g><g clip-path="url(#clip7)"><g clip-path="url(#clip8)"><g clip-path="url(#clip9)"><path d="M122.052 331.708 83.9896 272.5 107.25 278.844 79.7604 236.552 96.6771 238.667 56.5 179.458 16.3229 238.667 33.2396 236.552 5.75 278.844 29.0104 272.5-9.05209 331.708 48.0417 321.135 48.0417 365.542 64.9583 365.542 64.9583 321.135Z" fill="#085421"/></g></g></g><g clip-path="url(#clip10)"><g clip-path="url(#clip11)"><g clip-path="url(#clip12)"><path d="M159.646 153.583 123.271 97 145.5 103.062 119.229 62.6458 135.396 64.6667 97 8.08333 58.6042 64.6667 74.7708 62.6458 48.5 103.062 70.7292 97 34.3542 153.583 88.9167 143.479 88.9167 185.917 105.083 185.917 105.083 143.479Z" fill="#0E9039" transform="matrix(1.00515 0 0 1 481 209)"/></g></g></g><g clip-path="url(#clip13)"><g clip-path="url(#clip14)"><g clip-path="url(#clip15)"><path d="M159.646 153.583 123.271 97 145.5 103.062 119.229 62.6458 135.396 64.6667 97 8.08333 58.6042 64.6667 74.7708 62.6458 48.5 103.062 70.7292 97 34.3542 153.583 88.9167 143.479 88.9167 185.917 105.083 185.917 105.083 143.479Z" fill="#085421" transform="matrix(1.00515 0 0 1 656 178)"/></g></g></g><g clip-path="url(#clip16)"><g clip-path="url(#clip17)"><g clip-path="url(#clip18)"><path d="M211.49 203.458 163.302 128.5 192.75 136.531 157.948 82.9896 179.365 85.6667 128.5 10.7083 77.6354 85.6667 99.0521 82.9896 64.25 136.531 93.6979 128.5 45.5104 203.458 117.792 190.073 117.792 246.292 139.208 246.292 139.208 190.073Z" fill="#14D253" transform="matrix(1 0 0 1.00389 754 218)"/></g></g></g><g clip-path="url(#clip19)"><g clip-path="url(#clip20)"><g clip-path="url(#clip21)"><path d="M409.583 248.667C406.083 237 398.5 227.083 388 220.958 388 220.083 388 219.208 388 218.333 388.292 198.5 371.958 182.167 351.833 182.167 345.708 182.167 340.167 183.625 335.208 186.25 328.5 176.625 317.708 170.5 305.167 170.5 289.125 170.5 275.417 181 270.458 195.583 265.208 192.667 259.083 190.917 252.667 190.917 232.542 190.917 216.208 207.25 216.208 227.375 216.208 234.958 218.542 241.958 222.625 247.792 203.667 252.75 189.958 269.667 189.958 290.083 189.958 314.292 209.5 333.833 233.708 333.833 237.208 333.833 240.708 333.25 244.208 332.667 258.208 339.083 289.125 357.75 290.583 379.042L289.417 406.75C289.417 408.208 288.833 409.667 287.667 410.833L285.042 413.458C283.292 415.5 284.458 418.417 287.083 418.417L319.167 418.417C321.5 418.417 322.667 416.083 321.792 414.042 321.792 414.042 320.333 411.125 319.458 410.25 318.583 409.083 317.708 407.917 317.708 406.167L316.542 370.875C316.542 370.583 316.833 370.292 316.833 370.292 319.167 359.792 333.167 352.792 348.042 345.5 362.917 338.208 380.417 329.458 385.958 314.292 389.458 315.458 393.25 316.333 397.333 316.333 416.583 316.333 432.333 300.583 432.333 281.333 432.042 266.458 422.708 253.625 409.583 248.667ZM304.583 337.625C303.708 330.333 301.958 321.583 298.458 313.125 305.75 312.25 312.458 309.917 318.292 306.417 312.167 316.917 307.5 328.292 304.583 337.625ZM260.542 324.5C265.792 320.417 270.167 314.875 273.375 308.75 276 309.917 278.625 311.083 281.542 311.667 289.125 324.208 290.583 338.5 290.583 347.542 281.25 337.625 269.292 329.75 260.542 324.5ZM341.333 332.375C332.875 336.458 324.125 340.833 317.125 346.083 320.917 334.125 327.625 316.042 338.125 302.917 345.417 307.583 354.167 310.208 363.5 310.208 366.417 310.208 369.042 309.917 371.667 309.333 368.458 318.375 357.083 324.5 341.333 332.375Z" fill="#0E9039"/></g></g></g><g clip-path="url(#clip22)"><g clip-path="url(#clip23)"><g clip-path="url(#clip24)"><path d="M211.49 203.458 163.302 128.5 192.75 136.531 157.948 82.9896 179.365 85.6667 128.5 10.7083 77.6354 85.6667 99.0521 82.9896 64.25 136.531 93.6979 128.5 45.5104 203.458 117.792 190.073 117.792 246.292 139.208 246.292 139.208 190.073Z" fill="#14D253" transform="matrix(1.00389 0 0 1 269 231)"/></g></g></g><path d="M242.615 407.451C249.062 405.723 255.689 409.549 257.416 415.996L312.587 621.896C314.314 628.343 310.488 634.97 304.041 636.697L304.041 636.697C297.594 638.424 290.967 634.599 289.24 628.151L234.069 422.252C232.342 415.805 236.168 409.178 242.615 407.45Z" fill="#184D47" fill-rule="evenodd"/><path d="M838.323 399.947C844.959 400.67 849.752 406.634 849.029 413.27L825.957 625.181C825.234 631.816 819.27 636.609 812.634 635.887L812.634 635.886C805.999 635.164 801.206 629.199 801.928 622.564L825.001 410.653C825.724 404.018 831.688 399.225 838.323 399.947Z" fill="#184D47" fill-rule="evenodd"/><path d="M40.4933 272.437C113.177 277.846 190.985 367.796 224.214 491.809 228.94 509.447 232.541 526.939 235.067 544.087L237.456 564.409 3.05176e-05 564.409 7.62939e-06 279.124 10.8726 275.147C15.8737 273.807 20.9353 272.93 26.0396 272.497 30.8249 272.091 35.6478 272.076 40.4933 272.437Z" fill="#52D31F" fill-rule="evenodd"/><path d="M253.835 339.992C326.518 345.402 404.326 435.351 437.556 559.365L438.754 564.409 134.545 564.409 133.943 559.29C124.42 450.375 159.2 360.123 224.214 342.703 229.215 341.363 234.277 340.485 239.381 340.052 244.166 339.647 248.989 339.632 253.835 339.992Z" fill="#52D31F" fill-rule="evenodd"/><path d="M198.439 464.996C207.384 465.094 215.919 466.841 223.896 470.363 251.813 482.692 268.262 514.733 272.992 558.069L273.423 564.409 57.0345 564.409 57.4504 563.816C102.859 502.216 155.393 464.522 198.439 464.996Z" fill="#184D47" fill-rule="evenodd"/><path d="M423 479C464.354 479 501.793 508.449 528.893 556.061L533 564 313 564 317.107 556.061C344.207 508.449 381.646 479 423 479Z" fill="#184D47" fill-rule="evenodd"/><path d="M309.5 462C311.985 462 314 464.015 314 466.5L314 695.5C314 697.985 311.985 700 309.5 700L309.5 700C307.015 700 305 697.985 305 695.5L305 466.5C305 464.015 307.015 462 309.5 462Z" fill="#184D47" fill-rule="evenodd"/><path d="M327.998 499.133C330.515 499.646 332.141 502.102 331.629 504.62L286.15 728.068C285.638 730.586 283.181 732.211 280.663 731.699L280.663 731.699C278.146 731.186 276.52 728.73 277.033 726.212L322.511 502.764C323.024 500.246 325.48 498.621 327.998 499.133Z" fill="#184D47" fill-rule="evenodd"/><path d="M27.6114 379.107C85.1667 384.053 139.664 449.525 169.78 543.679L175.804 564.409-1.71661e-05 564.409-2.67029e-05 381.716 12.2058 379.246C17.3552 378.706 22.4953 378.668 27.6114 379.107Z" fill="#184D47" fill-rule="evenodd"/><path d="M114.681 5.04829C183.488 29.0852 235.364 136.108 235.364 264.496 235.364 282.756 234.315 300.584 232.317 317.802L229.365 338.049 0 276.591 73.8373 1.02677 85.3685 0C90.546 0 95.6623 0.462572 100.705 1.36556 105.432 2.21218 110.094 3.44577 114.681 5.04829Z" fill="#52D31F" fill-rule="evenodd" transform="matrix(-0.965926 -0.258819 -0.258819 0.965926 1351.08 296.643)"/><path d="M173.309 5.04829C242.116 29.0852 293.992 136.108 293.992 264.496L293.843 269.679 0 190.944 0.743727 185.843C19.7349 78.1751 76.6882 0 143.996 0 149.174 0.000104987 154.29 0.462677 159.332 1.36556 164.059 2.21218 168.722 3.44577 173.309 5.04829Z" fill="#52D31F" fill-rule="evenodd" transform="matrix(-0.965926 -0.258819 -0.258819 0.965926 1194.37 379.372)"/><path d="M46.7598 1.46698C103.487 12.3799 150.87 83.1718 171.015 179.95L174.848 201.195 0 182.885 19.0269 1.18583 31.4236 0C36.6012 0 41.7174 0.496903 46.7598 1.46698Z" fill="#184D47" fill-rule="evenodd" transform="matrix(-0.994562 -0.104147 -0.104147 0.994562 1298.54 381.919)"/><path d="M89.1939 5.37365C97.4161 1.85029 105.929 0 114.649 0 145.168 0 173.158 22.6661 194.991 60.3981L197.947 66.0232 0 153.437 0.140997 152.727C16.7952 78.0334 49.6245 22.3297 89.1939 5.37365Z" fill="#184D47" fill-rule="evenodd" transform="matrix(-0.914774 0.403967 0.403967 0.914774 1160.47 423.449)"/><path d="M578.771 383.109C585.218 381.381 591.845 385.207 593.572 391.654L648.743 597.554C650.471 604.001 646.645 610.628 640.198 612.355L640.197 612.355C633.75 614.083 627.124 610.257 625.396 603.81L570.226 397.91C568.498 391.463 572.324 384.836 578.771 383.108Z" fill="#52D31F" fill-rule="evenodd"/><path d="M553 431C604.717 431 650.314 477.135 677.239 547.304L683 564 423 564 428.761 547.304C455.686 477.135 501.283 431 553 431Z" fill="#184D47" fill-rule="evenodd"/><path d="M-1 470C410.007 650 868.998 499.333 1296 499.333L1280.01 566-1 566-1 470Z" fill="#FFFFFF" fill-rule="evenodd"/><rect x="-45" y="564" width="1346" height="167" fill="#FFFFFF"/></g></svg>