<svg width="1280" height="566" viewBox="0 0 1280 566" fill="none" xmlns="http://www.w3.org/2000/svg">
<g clip-path="url(#clip0_101_159)">
<rect width="1280" height="566" fill="white"/>
<g clip-path="url(#clip1_101_159)">
<mask id="mask0_101_159" style="mask-type:luminance" maskUnits="userSpaceOnUse" x="0" y="0" width="1280" height="720">
<path d="M1280 0H0V720H1280V0Z" fill="white"/>
</mask>
<g mask="url(#mask0_101_159)">
<path d="M1280 0H0V720H1280V0Z" fill="#4EA2E8"/>
<path fill-rule="evenodd" clip-rule="evenodd" d="M499.016 558.852C439.259 517.507 372.782 483.807 419.752 361.569C466.723 239.33 782.07 189.915 1003.31 286.078C1066.41 377.222 862.342 564.176 778.292 609.638C694.243 655.101 558.772 600.197 499.016 558.852Z" fill="#1EB454"/>
<path fill-rule="evenodd" clip-rule="evenodd" d="M1151.12 237.074C1223.25 228.265 1295.33 209.276 1341.45 331.836C1387.57 454.396 1184.75 700.868 955.515 776.015C847.799 749.828 876.071 474.519 908.673 384.695C941.275 294.872 1078.99 245.884 1151.12 237.074Z" fill="#72CA36"/>
<path fill-rule="evenodd" clip-rule="evenodd" d="M149.001 420.303C116.276 387.783 78.4964 359.289 121.517 288.143C164.538 216.997 367.15 221.366 494.672 306.199C523.917 370.217 375.479 464.247 317.867 483.265C260.255 502.282 181.726 452.823 149.001 420.303Z" fill="#24D664"/>
<path fill-rule="evenodd" clip-rule="evenodd" d="M-38.8381 362.082C-54.3281 320.78 -75.7944 280.972 -10.3265 236.17C55.1414 191.367 229.049 275.701 306 400.197C306 467.521 140.087 490.334 82.6138 483.981C25.1407 477.629 -23.3481 403.384 -38.8381 362.082Z" fill="#12C84F"/>
<path fill-rule="evenodd" clip-rule="evenodd" d="M7 295C438.667 403 851.333 275 1287 349V667H7V295Z" fill="#41A818"/>
<mask id="mask1_101_159" style="mask-type:luminance" maskUnits="userSpaceOnUse" x="-40" y="35" width="105" height="105">
<path d="M65 35H-40V140H65V35Z" fill="white"/>
</mask>
<g mask="url(#mask1_101_159)">
<mask id="mask2_101_159" style="mask-type:luminance" maskUnits="userSpaceOnUse" x="-40" y="35" width="105" height="105">
<path d="M65 35H-40V140H65V35Z" fill="white"/>
</mask>
<g mask="url(#mask2_101_159)">
<mask id="mask3_101_159" style="mask-type:luminance" maskUnits="userSpaceOnUse" x="-40" y="35" width="105" height="105">
<path d="M65 35H-40V140H65V35Z" fill="white"/>
</mask>
<g mask="url(#mask3_101_159)">
<path d="M-20.5312 87.3905C-20.2031 87.3905 -19.7656 87.3905 -19.4375 87.3905C-19.4375 82.0311 -16.8125 77.1093 -12.5469 74.0468C-8.17194 70.9843 -2.59384 70.2187 2.43746 71.9687C6.59376 63.8749 15.7812 59.7187 24.5312 61.7968C33.2812 63.8749 39.625 71.7499 39.625 80.828C39.625 80.828 39.625 80.9374 39.625 81.0468C45.6406 80.0624 51.6562 82.578 55.375 87.3905C58.9843 92.3124 59.6406 98.7655 57.125 104.234C54.5 109.703 49.0312 113.312 43.0156 113.64V113.75H-20.4219C-27.6406 113.75 -33.5469 107.844 -33.5469 100.625C-33.5469 93.4061 -27.75 87.3905 -20.5312 87.3905Z" fill="#8CC3F0"/>
</g>
</g>
</g>
<path fill-rule="evenodd" clip-rule="evenodd" d="M1193.43 101.888C1193.12 101.888 1192.69 101.888 1192.38 101.888C1192.38 96.7824 1189.84 92.0934 1185.72 89.1758C1181.5 86.2583 1176.12 85.5289 1171.26 87.1961C1167.25 79.4854 1158.37 75.5258 1149.93 77.5055C1141.48 79.4854 1135.35 86.9876 1135.35 95.6362C1135.35 95.6362 1135.35 95.7403 1135.35 95.8445C1129.55 94.9068 1123.74 97.3033 1120.15 101.888C1116.66 106.577 1116.03 112.725 1118.46 117.935C1120.99 123.145 1126.27 126.583 1132.08 126.896V127H1193.33C1200.3 127 1206 121.373 1206 114.496C1206 107.619 1200.4 101.888 1193.43 101.888Z" fill="#8CC3F0"/>
<path fill-rule="evenodd" clip-rule="evenodd" d="M1069 94.5C1069 78.2076 1082.43 65 1099 65C1115.57 65 1129 78.2076 1129 94.5C1129 110.792 1115.57 124 1099 124C1082.43 124 1069 110.792 1069 94.5Z" fill="#8CC3F0"/>
<path fill-rule="evenodd" clip-rule="evenodd" d="M1055 111.5C1055 102.94 1061.94 96 1070.5 96C1079.06 96 1086 102.94 1086 111.5C1086 120.06 1079.06 127 1070.5 127C1061.94 127 1055 120.06 1055 111.5Z" fill="#8CC3F0"/>
<path d="M1150 115H1069V127H1150V115Z" fill="#8CC3F0"/>
<path fill-rule="evenodd" clip-rule="evenodd" d="M1115 103.5C1115 94.9396 1122.16 88 1131 88C1139.84 88 1147 94.9396 1147 103.5C1147 112.06 1139.84 119 1131 119C1122.16 119 1115 112.06 1115 103.5Z" fill="#8CC3F0"/>
<path fill-rule="evenodd" clip-rule="evenodd" d="M1105 92.5C1105 80.0736 1115.07 70 1127.5 70C1139.93 70 1150 80.0736 1150 92.5C1150 104.926 1139.93 115 1127.5 115C1115.07 115 1105 104.926 1105 92.5Z" fill="#8CC3F0"/>
<path d="M704 171H470V186H704V171Z" fill="#8CC3F0"/>
<path fill-rule="evenodd" clip-rule="evenodd" d="M458 174.5C458 168.149 463.373 163 470 163C476.627 163 482 168.149 482 174.5C482 180.851 476.627 186 470 186C463.373 186 458 180.851 458 174.5Z" fill="#8CC3F0"/>
<path fill-rule="evenodd" clip-rule="evenodd" d="M685 166.5C685 155.73 693.73 147 704.5 147C715.27 147 724 155.73 724 166.5C724 177.27 715.27 186 704.5 186C693.73 186 685 177.27 685 166.5Z" fill="#8CC3F0"/>
<path fill-rule="evenodd" clip-rule="evenodd" d="M473 166.5C473 155.73 481.954 147 493 147C504.046 147 513 155.73 513 166.5C513 177.27 504.046 186 493 186C481.954 186 473 177.27 473 166.5Z" fill="#8CC3F0"/>
<path fill-rule="evenodd" clip-rule="evenodd" d="M497 154C497 136.879 512.67 123 532 123C551.33 123 567 136.879 567 154C567 171.121 551.33 185 532 185C512.67 185 497 171.121 497 154Z" fill="#8CC3F0"/>
<path fill-rule="evenodd" clip-rule="evenodd" d="M545 144C545 122.461 564.252 105 588 105C611.748 105 631 122.461 631 144C631 165.539 611.748 183 588 183C564.252 183 545 165.539 545 144Z" fill="#8CC3F0"/>
<path fill-rule="evenodd" clip-rule="evenodd" d="M599 156C599 141.641 611.76 130 627.5 130C643.24 130 656 141.641 656 156C656 170.359 643.24 182 627.5 182C611.76 182 599 170.359 599 156Z" fill="#8CC3F0"/>
<path fill-rule="evenodd" clip-rule="evenodd" d="M628 148.5C628 129.998 642.998 115 661.5 115C680.002 115 695 129.998 695 148.5C695 167.002 680.002 182 661.5 182C642.998 182 628 167.002 628 148.5Z" fill="#8CC3F0"/>
<path fill-rule="evenodd" clip-rule="evenodd" d="M863.827 493.911C865.906 495.421 866.368 498.33 864.859 500.409L730.898 684.94C729.389 687.02 726.48 687.482 724.401 685.972C722.321 684.463 721.859 681.553 723.369 679.474L857.33 494.943C858.839 492.864 861.748 492.402 863.827 493.911Z" fill="#184D47"/>
<path fill-rule="evenodd" clip-rule="evenodd" d="M644.612 422.695C647.495 423.613 649.088 426.694 648.17 429.576L579.488 645.285C578.57 648.167 575.49 649.76 572.607 648.842C569.724 647.924 568.132 644.843 569.049 641.961L637.731 426.253C638.649 423.37 641.73 421.777 644.612 422.695Z" fill="#52D31F"/>
<path fill-rule="evenodd" clip-rule="evenodd" d="M624.5 398C627.538 398 630 400.462 630 403.5V629.5C630 632.538 627.538 635 624.5 635C621.462 635 619 632.538 619 629.5V403.5C619 400.462 621.462 398 624.5 398Z" fill="#52D31F"/>
<mask id="mask4_101_159" style="mask-type:luminance" maskUnits="userSpaceOnUse" x="958" y="156" width="280" height="280">
<path d="M1238 156H958V436H1238V156Z" fill="white"/>
</mask>
<g mask="url(#mask4_101_159)">
<mask id="mask5_101_159" style="mask-type:luminance" maskUnits="userSpaceOnUse" x="958" y="156" width="280" height="280">
<path d="M1238 156H958V436H1238V156Z" fill="white"/>
</mask>
<g mask="url(#mask5_101_159)">
<mask id="mask6_101_159" style="mask-type:luminance" maskUnits="userSpaceOnUse" x="958" y="156" width="280" height="280">
<path d="M1238 156H958V436H1238V156Z" fill="white"/>
</mask>
<g mask="url(#mask6_101_159)">
<path d="M1196.58 251.667C1193.08 240 1185.5 230.083 1175 223.958C1175 223.083 1175 222.208 1175 221.333C1175.29 201.5 1158.96 185.167 1138.83 185.167C1132.71 185.167 1127.17 186.625 1122.21 189.25C1115.5 179.625 1104.71 173.5 1092.17 173.5C1076.12 173.5 1062.42 184 1057.46 198.583C1052.21 195.667 1046.08 193.917 1039.67 193.917C1019.54 193.917 1003.21 210.25 1003.21 230.375C1003.21 237.958 1005.54 244.958 1009.62 250.792C990.667 255.75 976.958 272.667 976.958 293.083C976.958 317.292 996.5 336.833 1020.71 336.833C1024.21 336.833 1027.71 336.25 1031.21 335.667C1045.21 342.083 1076.12 360.75 1077.58 382.042L1076.42 409.75C1076.42 411.208 1075.83 412.667 1074.67 413.833L1072.04 416.458C1070.29 418.5 1071.46 421.417 1074.08 421.417H1106.17C1108.5 421.417 1109.67 419.083 1108.79 417.042C1108.79 417.042 1107.33 414.125 1106.46 413.25C1105.58 412.083 1104.71 410.917 1104.71 409.167L1103.54 373.875C1103.54 373.583 1103.83 373.292 1103.83 373.292C1106.17 362.792 1120.17 355.792 1135.04 348.5C1149.92 341.208 1167.42 332.458 1172.96 317.292C1176.46 318.458 1180.25 319.333 1184.33 319.333C1203.58 319.333 1219.33 303.583 1219.33 284.333C1219.04 269.458 1209.71 256.625 1196.58 251.667ZM1091.58 340.625C1090.71 333.333 1088.96 324.583 1085.46 316.125C1092.75 315.25 1099.46 312.917 1105.29 309.417C1099.17 319.917 1094.5 331.292 1091.58 340.625ZM1047.54 327.5C1052.79 323.417 1057.17 317.875 1060.38 311.75C1063 312.917 1065.62 314.083 1068.54 314.667C1076.12 327.208 1077.58 341.5 1077.58 350.542C1068.25 340.625 1056.29 332.75 1047.54 327.5ZM1128.33 335.375C1119.88 339.458 1111.12 343.833 1104.12 349.083C1107.92 337.125 1114.62 319.042 1125.12 305.917C1132.42 310.583 1141.17 313.208 1150.5 313.208C1153.42 313.208 1156.04 312.917 1158.67 312.333C1155.46 321.375 1144.08 327.5 1128.33 335.375Z" fill="#0E9039"/>
</g>
</g>
</g>
<mask id="mask7_101_159" style="mask-type:luminance" maskUnits="userSpaceOnUse" x="-45" y="171" width="203" height="203">
<path d="M158 171H-45V374H158V171Z" fill="white"/>
</mask>
<g mask="url(#mask7_101_159)">
<mask id="mask8_101_159" style="mask-type:luminance" maskUnits="userSpaceOnUse" x="-45" y="171" width="204" height="204">
<path d="M159 171H-45V375H159V171Z" fill="white"/>
</mask>
<g mask="url(#mask8_101_159)">
<mask id="mask9_101_159" style="mask-type:luminance" maskUnits="userSpaceOnUse" x="-45" y="171" width="204" height="204">
<path d="M159 171H-45V375H159V171Z" fill="white"/>
</mask>
<g mask="url(#mask9_101_159)">
<path d="M122.052 331.708L83.9897 272.5L107.25 278.844L79.7605 236.552L96.6772 238.667L56.5001 179.458L16.323 238.667L33.2397 236.552L5.75009 278.844L29.0105 272.5L-9.052 331.708L48.0418 321.135V365.542H64.9584V321.135L122.052 331.708Z" fill="#085421"/>
</g>
</g>
</g>
<mask id="mask10_101_159" style="mask-type:luminance" maskUnits="userSpaceOnUse" x="481" y="209" width="195" height="194">
<path d="M676 209H481V403H676V209Z" fill="white"/>
</mask>
<g mask="url(#mask10_101_159)">
<mask id="mask11_101_159" style="mask-type:luminance" maskUnits="userSpaceOnUse" x="481" y="209" width="195" height="195">
<path d="M676 209H481V404H676V209Z" fill="white"/>
</mask>
<g mask="url(#mask11_101_159)">
<mask id="mask12_101_159" style="mask-type:luminance" maskUnits="userSpaceOnUse" x="481" y="209" width="195" height="195">
<path d="M676 209H481V404H676V209Z" fill="white"/>
</mask>
<g mask="url(#mask12_101_159)">
<path d="M641.468 362.583L604.906 306L627.249 312.062L600.843 271.646L617.093 273.667L578.5 217.083L539.906 273.667L556.156 271.646L529.75 312.062L552.094 306L515.531 362.583L570.375 352.479V394.917H586.624V352.479L641.468 362.583Z" fill="#0E9039"/>
</g>
</g>
</g>
<mask id="mask13_101_159" style="mask-type:luminance" maskUnits="userSpaceOnUse" x="656" y="178" width="195" height="194">
<path d="M851 178H656V372H851V178Z" fill="white"/>
</mask>
<g mask="url(#mask13_101_159)">
<mask id="mask14_101_159" style="mask-type:luminance" maskUnits="userSpaceOnUse" x="656" y="178" width="195" height="195">
<path d="M851 178H656V373H851V178Z" fill="white"/>
</mask>
<g mask="url(#mask14_101_159)">
<mask id="mask15_101_159" style="mask-type:luminance" maskUnits="userSpaceOnUse" x="656" y="178" width="195" height="195">
<path d="M851 178H656V373H851V178Z" fill="white"/>
</mask>
<g mask="url(#mask15_101_159)">
<path d="M816.468 331.583L779.906 275L802.249 281.062L775.843 240.646L792.093 242.667L753.5 186.083L714.906 242.667L731.156 240.646L704.75 281.062L727.094 275L690.531 331.583L745.375 321.479V363.917H761.624V321.479L816.468 331.583Z" fill="#085421"/>
</g>
</g>
</g>
<mask id="mask16_101_159" style="mask-type:luminance" maskUnits="userSpaceOnUse" x="754" y="218" width="257" height="258">
<path d="M1011 218H754V476H1011V218Z" fill="white"/>
</mask>
<g mask="url(#mask16_101_159)">
<mask id="mask17_101_159" style="mask-type:luminance" maskUnits="userSpaceOnUse" x="754" y="218" width="257" height="258">
<path d="M1011 218H754V476H1011V218Z" fill="white"/>
</mask>
<g mask="url(#mask17_101_159)">
<mask id="mask18_101_159" style="mask-type:luminance" maskUnits="userSpaceOnUse" x="754" y="218" width="257" height="258">
<path d="M1011 218H754V476H1011V218Z" fill="white"/>
</mask>
<g mask="url(#mask18_101_159)">
<path d="M965.49 422.249L917.302 347L946.75 355.062L911.948 301.312L933.365 304L882.5 228.75L831.635 304L853.052 301.312L818.25 355.062L847.698 347L799.51 422.249L871.792 408.812V465.25H893.208V408.812L965.49 422.249Z" fill="#14D253"/>
</g>
</g>
</g>
<mask id="mask19_101_159" style="mask-type:luminance" maskUnits="userSpaceOnUse" x="171" y="153" width="280" height="280">
<path d="M451 153H171V433H451V153Z" fill="white"/>
</mask>
<g mask="url(#mask19_101_159)">
<mask id="mask20_101_159" style="mask-type:luminance" maskUnits="userSpaceOnUse" x="171" y="153" width="280" height="280">
<path d="M451 153H171V433H451V153Z" fill="white"/>
</mask>
<g mask="url(#mask20_101_159)">
<mask id="mask21_101_159" style="mask-type:luminance" maskUnits="userSpaceOnUse" x="171" y="153" width="280" height="280">
<path d="M451 153H171V433H451V153Z" fill="white"/>
</mask>
<g mask="url(#mask21_101_159)">
<path d="M409.583 248.667C406.083 237 398.5 227.083 388 220.958C388 220.083 388 219.208 388 218.333C388.292 198.5 371.958 182.167 351.833 182.167C345.708 182.167 340.167 183.625 335.208 186.25C328.5 176.625 317.708 170.5 305.167 170.5C289.125 170.5 275.417 181 270.458 195.583C265.208 192.667 259.083 190.917 252.667 190.917C232.542 190.917 216.208 207.25 216.208 227.375C216.208 234.958 218.542 241.958 222.625 247.792C203.667 252.75 189.958 269.667 189.958 290.083C189.958 314.292 209.5 333.833 233.708 333.833C237.208 333.833 240.708 333.25 244.208 332.667C258.208 339.083 289.125 357.75 290.583 379.042L289.417 406.75C289.417 408.208 288.833 409.667 287.667 410.833L285.042 413.458C283.292 415.5 284.458 418.417 287.083 418.417H319.167C321.5 418.417 322.667 416.083 321.792 414.042C321.792 414.042 320.333 411.125 319.458 410.25C318.583 409.083 317.708 407.917 317.708 406.167L316.542 370.875C316.542 370.583 316.833 370.292 316.833 370.292C319.167 359.792 333.167 352.792 348.042 345.5C362.917 338.208 380.417 329.458 385.958 314.292C389.458 315.458 393.25 316.333 397.333 316.333C416.583 316.333 432.333 300.583 432.333 281.333C432.042 266.458 422.708 253.625 409.583 248.667ZM304.583 337.625C303.708 330.333 301.958 321.583 298.458 313.125C305.75 312.25 312.458 309.917 318.292 306.417C312.167 316.917 307.5 328.292 304.583 337.625ZM260.542 324.5C265.792 320.417 270.167 314.875 273.375 308.75C276 309.917 278.625 311.083 281.542 311.667C289.125 324.208 290.583 338.5 290.583 347.542C281.25 337.625 269.292 329.75 260.542 324.5ZM341.333 332.375C332.875 336.458 324.125 340.833 317.125 346.083C320.917 334.125 327.625 316.042 338.125 302.917C345.417 307.583 354.167 310.208 363.5 310.208C366.417 310.208 369.042 309.917 371.667 309.333C368.458 318.375 357.083 324.5 341.333 332.375Z" fill="#0E9039"/>
</g>
</g>
</g>
<mask id="mask22_101_159" style="mask-type:luminance" maskUnits="userSpaceOnUse" x="269" y="231" width="258" height="257">
<path d="M527 231H269V488H527V231Z" fill="white"/>
</mask>
<g mask="url(#mask22_101_159)">
<mask id="mask23_101_159" style="mask-type:luminance" maskUnits="userSpaceOnUse" x="269" y="231" width="258" height="257">
<path d="M527 231H269V488H527V231Z" fill="white"/>
</mask>
<g mask="url(#mask23_101_159)">
<mask id="mask24_101_159" style="mask-type:luminance" maskUnits="userSpaceOnUse" x="269" y="231" width="258" height="257">
<path d="M527 231H269V488H527V231Z" fill="white"/>
</mask>
<g mask="url(#mask24_101_159)">
<path d="M481.313 434.458L432.937 359.5L462.5 367.531L427.562 313.99L449.063 316.667L398 241.708L346.937 316.667L368.437 313.99L333.5 367.531L363.062 359.5L314.688 434.458L387.25 421.073V477.292H408.75V421.073L481.313 434.458Z" fill="#14D253"/>
</g>
</g>
</g>
<path fill-rule="evenodd" clip-rule="evenodd" d="M242.615 407.451C249.062 405.723 255.689 409.549 257.416 415.996L312.587 621.896C314.314 628.343 310.488 634.97 304.041 636.697C297.594 638.424 290.967 634.599 289.24 628.151L234.069 422.252C232.342 415.805 236.168 409.179 242.615 407.451Z" fill="#184D47"/>
<path fill-rule="evenodd" clip-rule="evenodd" d="M838.323 399.947C844.959 400.67 849.752 406.634 849.029 413.27L825.957 625.181C825.234 631.816 819.27 636.609 812.634 635.887V635.886C805.999 635.164 801.206 629.199 801.928 622.564L825.001 410.653C825.724 404.018 831.688 399.225 838.323 399.947Z" fill="#184D47"/>
<path fill-rule="evenodd" clip-rule="evenodd" d="M40.4933 272.437C113.177 277.846 190.985 367.796 224.214 491.809C228.94 509.447 232.541 526.939 235.067 544.087L237.456 564.409H2.28882e-05L0 279.124L10.8726 275.147C15.8737 273.807 20.9353 272.93 26.0396 272.497C30.8249 272.091 35.6478 272.076 40.4933 272.437Z" fill="#52D31F"/>
<path fill-rule="evenodd" clip-rule="evenodd" d="M253.835 339.992C326.518 345.402 404.326 435.351 437.556 559.365L438.754 564.409H134.545L133.943 559.29C124.42 450.375 159.2 360.123 224.214 342.703C229.215 341.363 234.277 340.485 239.381 340.052C244.166 339.647 248.989 339.632 253.835 339.992Z" fill="#52D31F"/>
<path fill-rule="evenodd" clip-rule="evenodd" d="M198.439 464.996C207.384 465.094 215.919 466.841 223.896 470.363C251.813 482.692 268.262 514.733 272.992 558.069L273.423 564.409H57.0347L57.4506 563.816C102.859 502.216 155.393 464.522 198.439 464.996Z" fill="#184D47"/>
<path fill-rule="evenodd" clip-rule="evenodd" d="M423 479C464.354 479 501.793 508.449 528.893 556.061L533 564H313L317.107 556.061C344.207 508.449 381.646 479 423 479Z" fill="#184D47"/>
<path fill-rule="evenodd" clip-rule="evenodd" d="M309.5 462C311.985 462 314 464.015 314 466.5V695.5C314 697.985 311.985 700 309.5 700C307.015 700 305 697.985 305 695.5V466.5C305 464.015 307.015 462 309.5 462Z" fill="#184D47"/>
<path fill-rule="evenodd" clip-rule="evenodd" d="M327.998 499.133C330.515 499.646 332.141 502.102 331.629 504.62L286.15 728.068C285.638 730.586 283.181 732.211 280.663 731.699C278.146 731.186 276.52 728.73 277.033 726.212L322.511 502.764C323.024 500.246 325.48 498.621 327.998 499.133Z" fill="#184D47"/>
<path fill-rule="evenodd" clip-rule="evenodd" d="M27.6114 379.107C85.1667 384.053 139.664 449.525 169.78 543.679L175.804 564.409H9.5368e-06L0 381.716L12.2058 379.246C17.3552 378.706 22.4953 378.668 27.6114 379.107Z" fill="#184D47"/>
<path fill-rule="evenodd" clip-rule="evenodd" d="M1239 271.838C1166.32 277.247 1088.51 367.197 1055.28 491.21C1050.55 508.848 1046.95 526.34 1044.43 543.488L1042.04 563.809L1279.49 563.81L1279.49 278.524L1268.62 274.548C1263.62 273.208 1258.56 272.331 1253.45 271.898C1248.67 271.492 1243.85 271.477 1239 271.838Z" fill="#52D31F"/>
<path fill-rule="evenodd" clip-rule="evenodd" d="M1025.66 339.393C952.976 344.802 875.168 434.752 841.939 558.765L840.741 563.81L1144.95 563.81L1145.55 558.69C1155.07 449.776 1120.29 359.524 1055.28 342.103C1050.28 340.763 1045.22 339.886 1040.11 339.453C1035.33 339.047 1030.51 339.032 1025.66 339.393Z" fill="#52D31F"/>
<path fill-rule="evenodd" clip-rule="evenodd" d="M1251.88 378.508C1194.33 383.454 1139.83 448.926 1109.71 543.08L1103.69 563.81L1279.49 563.809L1279.49 381.117L1267.29 378.646C1262.14 378.107 1257 378.068 1251.88 378.508Z" fill="#184D47"/>
<path fill-rule="evenodd" clip-rule="evenodd" d="M1081.05 464.396C1072.1 464.495 1063.57 466.241 1055.59 469.764C1027.67 482.092 1011.23 514.134 1006.5 557.47L1006.06 563.81L1222.45 563.809L1222.04 563.217C1176.63 501.617 1124.1 463.923 1081.05 464.396Z" fill="#184D47"/>
<path fill-rule="evenodd" clip-rule="evenodd" d="M578.771 383.109C585.218 381.381 591.845 385.207 593.572 391.654L648.743 597.554C650.471 604.001 646.645 610.628 640.198 612.355C633.751 614.083 627.124 610.257 625.396 603.81L570.226 397.91C568.498 391.463 572.324 384.836 578.771 383.108V383.109Z" fill="#52D31F"/>
<path fill-rule="evenodd" clip-rule="evenodd" d="M553 431C604.717 431 650.314 477.135 677.239 547.304L683 564H423L428.761 547.304C455.686 477.135 501.283 431 553 431Z" fill="#184D47"/>
<path fill-rule="evenodd" clip-rule="evenodd" d="M-1 470C410.007 650 868.998 499.333 1296 499.333L1280.01 566H-1V470Z" fill="white"/>
<path d="M1301 564H-45V731H1301V564Z" fill="white"/>
</g>
</g>
</g>
<defs>
<clipPath id="clip0_101_159">
<rect width="1280" height="566" fill="white"/>
</clipPath>
<clipPath id="clip1_101_159">
<rect width="1280" height="720" fill="white"/>
</clipPath>
</defs>
</svg>
