<svg width="378" height="641" viewBox="0 0 378 641" fill="none" xmlns="http://www.w3.org/2000/svg">
<g clip-path="url(#clip0_104_371)">
<g clip-path="url(#clip1_104_371)">
<mask id="mask0_104_371" style="mask-type:luminance" maskUnits="userSpaceOnUse" x="0" y="0" width="378" height="720">
<path d="M378 0H0V720H378V0Z" fill="white"/>
</mask>
<g mask="url(#mask0_104_371)">
<path d="M378 0H0V720H378V0Z" fill="#4EA2E8"/>
<path fill-rule="evenodd" clip-rule="evenodd" d="M-5.33039 657.74C-47.1084 628.834 -93.5847 605.273 -60.7461 519.812C-27.9076 434.35 192.564 399.802 347.242 467.033C391.354 530.756 248.684 661.462 189.922 693.246C131.16 725.031 36.4477 686.646 -5.33039 657.74Z" fill="#1EB454"/>
<path fill-rule="evenodd" clip-rule="evenodd" d="M348.807 424.293C403.903 417.564 458.955 403.059 494.187 496.677C529.419 590.295 374.49 778.562 199.39 835.964C117.111 815.961 138.707 605.666 163.609 537.054C188.512 468.442 293.71 431.022 348.807 424.293Z" fill="#72CA36"/>
<mask id="mask1_104_371" style="mask-type:luminance" maskUnits="userSpaceOnUse" x="230" y="413" width="75" height="76">
<path d="M305 413H230V489H305V413Z" fill="white"/>
</mask>
<g mask="url(#mask1_104_371)">
<mask id="mask2_104_371" style="mask-type:luminance" maskUnits="userSpaceOnUse" x="230" y="413" width="75" height="76">
<path d="M305 413H230V489H305V413Z" fill="white"/>
</mask>
<g mask="url(#mask2_104_371)">
<mask id="mask3_104_371" style="mask-type:luminance" maskUnits="userSpaceOnUse" x="230" y="413" width="75" height="76">
<path d="M305 413H230V489H305V413Z" fill="white"/>
</mask>
<g mask="url(#mask3_104_371)">
<path d="M291.719 473.166L277.656 451L286.25 453.375L276.094 437.541L282.344 438.333L267.5 416.167L252.656 438.333L258.906 437.541L248.75 453.375L257.344 451L243.281 473.166L264.375 469.208V485.833H270.625V469.208L291.719 473.166Z" fill="#22BC1A"/>
</g>
</g>
</g>
<path fill-rule="evenodd" clip-rule="evenodd" d="M412.827 493.911C414.907 495.421 415.369 498.33 413.859 500.409L279.898 684.94C278.389 687.02 275.48 687.482 273.401 685.972C271.322 684.463 270.86 681.553 272.369 679.474L406.33 494.943C407.839 492.864 410.748 492.402 412.828 493.911H412.827Z" fill="#184D47"/>
<path fill-rule="evenodd" clip-rule="evenodd" d="M58.4097 516.986C45.7547 504.41 31.145 493.391 47.7815 465.878C64.418 438.365 142.77 440.055 192.084 472.861C203.393 497.617 145.991 533.979 123.712 541.333C101.433 548.688 71.0648 529.562 58.4097 516.986Z" fill="#24D664"/>
<path fill-rule="evenodd" clip-rule="evenodd" d="M-117.852 501.229C-128.537 472.745 -143.343 445.291 -98.1864 414.393C-53.0298 383.495 66.9234 441.656 120 527.515C120 573.945 5.56134 589.679 -34.0808 585.297C-73.7229 580.916 -107.168 529.713 -117.852 501.229Z" fill="#12C84F"/>
<mask id="mask4_104_371" style="mask-type:luminance" maskUnits="userSpaceOnUse" x="-82" y="405" width="544" height="350">
<path d="M462 405H-82V755H462V405Z" fill="white"/>
</mask>
<g mask="url(#mask4_104_371)">
<g filter="url(#filter0_f_104_371)">
<mask id="mask5_104_371" style="mask-type:luminance" maskUnits="userSpaceOnUse" x="-35" y="418" width="448" height="322">
<path d="M413 418H-35V740H413V418Z" fill="white"/>
</mask>
<g mask="url(#mask5_104_371)">
<path fill-rule="evenodd" clip-rule="evenodd" d="M-84.8501 454.253C92.0995 526.88 261.26 440.804 439.85 490.567V704.414H-84.8501V454.253Z" fill="#41A818"/>
</g>
</g>
</g>
<path fill-rule="evenodd" clip-rule="evenodd" d="M-70 456C96.9336 524.516 256.52 443.312 425 490.258V692H-70V456Z" fill="#41A818"/>
<mask id="mask6_104_371" style="mask-type:luminance" maskUnits="userSpaceOnUse" x="-34" y="236" width="118" height="118">
<path d="M84 236H-34V354H84V236Z" fill="white"/>
</mask>
<g mask="url(#mask6_104_371)">
<mask id="mask7_104_371" style="mask-type:luminance" maskUnits="userSpaceOnUse" x="-34" y="236" width="118" height="118">
<path d="M84 236H-34V354H84V236Z" fill="white"/>
</mask>
<g mask="url(#mask7_104_371)">
<mask id="mask8_104_371" style="mask-type:luminance" maskUnits="userSpaceOnUse" x="-34" y="236" width="118" height="118">
<path d="M84 236H-34V354H84V236Z" fill="white"/>
</mask>
<g mask="url(#mask8_104_371)">
<path d="M-12.1209 294.877C-11.7522 294.877 -11.2605 294.877 -10.8918 294.877C-10.8918 288.854 -7.94181 283.323 -3.14801 279.881C1.76869 276.439 8.0374 275.579 13.6916 277.546C18.3624 268.45 28.6874 263.779 38.5207 266.114C48.3541 268.45 55.4832 277.3 55.4832 287.502C55.4832 287.502 55.4832 287.625 55.4832 287.748C62.2436 286.642 69.0041 289.469 73.1832 294.877C77.2395 300.408 77.977 307.66 75.1499 313.806C72.1999 319.952 66.0541 324.008 59.2937 324.377V324.5H-11.998C-20.1101 324.5 -26.7481 317.862 -26.7481 309.75C-26.7481 301.637 -20.2331 294.877 -12.1209 294.877Z" fill="#8CC3F0"/>
</g>
</g>
</g>
<path fill-rule="evenodd" clip-rule="evenodd" d="M443.175 202.866C442.801 202.866 442.303 202.866 441.929 202.866C441.929 196.739 438.939 191.112 434.08 187.611C429.097 184.11 422.743 183.235 417.012 185.235C412.278 175.982 401.813 171.231 391.846 173.607C381.88 175.982 374.654 184.985 374.654 195.363C374.654 195.363 374.654 195.488 374.654 195.613C367.802 194.488 360.949 197.364 356.714 202.866C352.602 208.492 351.855 215.87 354.72 222.122C357.71 228.374 363.94 232.5 370.792 232.875V233H443.05C451.273 233 458 226.248 458 217.995C458 209.743 451.397 202.866 443.175 202.866Z" fill="#8CC3F0"/>
<path fill-rule="evenodd" clip-rule="evenodd" d="M296 195C296 175.67 311.67 160 331 160C350.33 160 366 175.67 366 195C366 214.33 350.33 230 331 230C311.67 230 296 214.33 296 195Z" fill="#8CC3F0"/>
<path fill-rule="evenodd" clip-rule="evenodd" d="M279 214.5C279 204.283 287.283 196 297.5 196C307.717 196 316 204.283 316 214.5C316 224.717 307.717 233 297.5 233C287.283 233 279 224.717 279 214.5Z" fill="#8CC3F0"/>
<path d="M392 219H295V234H392V219Z" fill="#8CC3F0"/>
<path fill-rule="evenodd" clip-rule="evenodd" d="M350 205.5C350 195.283 358.507 187 369 187C379.493 187 388 195.283 388 205.5C388 215.717 379.493 224 369 224C358.507 224 350 215.717 350 205.5Z" fill="#8CC3F0"/>
<path fill-rule="evenodd" clip-rule="evenodd" d="M339 192.5C339 177.864 350.864 166 365.5 166C380.136 166 392 177.864 392 192.5C392 207.136 380.136 219 365.5 219C350.864 219 339 207.136 339 192.5Z" fill="#8CC3F0"/>
<path d="M283 120H105V132H283V120Z" fill="#8CC3F0"/>
<path fill-rule="evenodd" clip-rule="evenodd" d="M96 123C96 118.029 100.029 114 105 114C109.971 114 114 118.029 114 123C114 127.971 109.971 132 105 132C100.029 132 96 127.971 96 123Z" fill="#8CC3F0"/>
<path fill-rule="evenodd" clip-rule="evenodd" d="M269 117C269 108.716 275.716 102 284 102C292.284 102 299 108.716 299 117C299 125.284 292.284 132 284 132C275.716 132 269 125.284 269 117Z" fill="#8CC3F0"/>
<path fill-rule="evenodd" clip-rule="evenodd" d="M108 117C108 108.716 114.716 102 123 102C131.284 102 138 108.716 138 117C138 125.284 131.284 132 123 132C114.716 132 108 125.284 108 117Z" fill="#8CC3F0"/>
<path fill-rule="evenodd" clip-rule="evenodd" d="M126 106.5C126 93.5213 137.864 83 152.5 83C167.136 83 179 93.5213 179 106.5C179 119.479 167.136 130 152.5 130C137.864 130 126 119.479 126 106.5Z" fill="#8CC3F0"/>
<path fill-rule="evenodd" clip-rule="evenodd" d="M162 99.5C162 83.2076 176.551 70 194.5 70C212.449 70 227 83.2076 227 99.5C227 115.792 212.449 129 194.5 129C176.551 129 162 115.792 162 99.5Z" fill="#8CC3F0"/>
<path fill-rule="evenodd" clip-rule="evenodd" d="M204 108.5C204 97.7304 213.626 89 225.5 89C237.374 89 247 97.7304 247 108.5C247 119.27 237.374 128 225.5 128C213.626 128 204 119.27 204 108.5Z" fill="#8CC3F0"/>
<path fill-rule="evenodd" clip-rule="evenodd" d="M225 102.5C225 88.4167 236.641 77 251 77C265.359 77 277 88.4167 277 102.5C277 116.583 265.359 128 251 128C236.641 128 225 116.583 225 102.5Z" fill="#8CC3F0"/>
<path fill-rule="evenodd" clip-rule="evenodd" d="M410.909 468.739C365.965 472.084 317.852 527.704 297.305 604.388C294.382 615.295 292.156 626.11 290.593 636.714L289.117 649.28L435.948 649.28L435.948 472.873L429.225 470.415C426.132 469.586 423.003 469.044 419.846 468.776C416.887 468.525 413.905 468.516 410.909 468.739Z" fill="#52D31F"/>
<path fill-rule="evenodd" clip-rule="evenodd" d="M278.989 510.512C234.045 513.856 185.932 569.477 165.385 646.161L164.644 649.28L352.752 649.28L353.124 646.115C359.013 578.767 337.507 522.96 297.305 512.188C294.212 511.359 291.082 510.817 287.926 510.549C284.968 510.298 281.985 510.289 278.989 510.512Z" fill="#52D31F"/>
<path fill-rule="evenodd" clip-rule="evenodd" d="M418.874 534.699C383.284 537.757 349.586 578.242 330.964 636.462L327.239 649.281L435.947 649.28L435.947 536.312L428.4 534.784C425.216 534.451 422.037 534.427 418.874 534.699Z" fill="#184D47"/>
<path fill-rule="evenodd" clip-rule="evenodd" d="M313.243 587.807C307.712 587.868 302.434 588.948 297.502 591.126C280.239 598.75 270.067 618.563 267.143 645.36L266.876 649.28L400.681 649.28L400.423 648.913C372.345 610.823 339.861 587.515 313.243 587.807Z" fill="#184D47"/>
<path fill-rule="evenodd" clip-rule="evenodd" d="M154.342 581.558C155.529 581.936 156.186 583.205 155.807 584.392L127.518 673.239C127.14 674.427 125.871 675.083 124.684 674.704C123.497 674.326 122.841 673.057 123.219 671.87L151.508 583.023C151.886 581.836 153.155 581.18 154.342 581.558Z" fill="#52D31F"/>
<path fill-rule="evenodd" clip-rule="evenodd" d="M146 571C147.105 571 148 571.895 148 573V667C148 668.105 147.105 669 146 669C144.895 669 144 668.105 144 667V573C144 571.895 144.895 571 146 571Z" fill="#52D31F"/>
<path fill-rule="evenodd" clip-rule="evenodd" d="M127.223 565.253C129.879 564.541 132.608 566.117 133.32 568.772L156.044 653.58C156.755 656.235 155.179 658.964 152.524 659.676C149.868 660.387 147.139 658.812 146.427 656.156L123.703 571.349C122.992 568.694 124.568 565.964 127.223 565.253Z" fill="#52D31F"/>
<path fill-rule="evenodd" clip-rule="evenodd" d="M278.108 557.179C280.674 557.458 282.528 559.765 282.248 562.33L273.326 644.278C273.046 646.844 270.74 648.698 268.174 648.418C265.608 648.139 263.754 645.832 264.034 643.266L272.956 561.319C273.236 558.753 275.542 556.899 278.108 557.179Z" fill="#184D47"/>
<path fill-rule="evenodd" clip-rule="evenodd" d="M209.5 574C235.16 574 257.783 597.241 271.142 632.589L274 641H145L147.858 632.589C161.217 597.241 183.84 574 209.5 574Z" fill="#184D47"/>
<path fill-rule="evenodd" clip-rule="evenodd" d="M145 598C165.677 598 184.396 612.898 197.946 636.984L200 641H90L92.0536 636.984C105.604 612.898 124.323 598 145 598Z" fill="#184D47"/>
<path fill-rule="evenodd" clip-rule="evenodd" d="M-45.0848 495.37C-8.9557 498.059 29.7205 542.771 46.2379 604.415C48.587 613.182 50.3767 621.876 51.6325 630.401L52.8199 640.502H-65.2129V498.694L-59.8084 496.718C-57.3225 496.052 -54.8065 495.616 -52.2693 495.4C-49.8907 495.199 -47.4933 495.191 -45.0848 495.37Z" fill="#52D31F"/>
<path fill-rule="evenodd" clip-rule="evenodd" d="M60.9615 528.951C97.0905 531.639 135.767 576.351 152.284 637.995L152.88 640.502H1.66551L1.36646 637.957C-3.36693 583.819 13.921 538.957 46.2379 530.298C48.7238 529.632 51.2398 529.196 53.777 528.98C56.1556 528.779 58.5529 528.771 60.9615 528.951Z" fill="#52D31F"/>
<path fill-rule="evenodd" clip-rule="evenodd" d="M33.4258 591.086C37.8719 591.135 42.1145 592.003 46.0794 593.754C59.9565 599.882 68.1327 615.809 70.4838 637.351L70.6982 640.502H-36.8628L-36.656 640.207C-14.0847 609.588 12.0284 590.851 33.4258 591.086Z" fill="#184D47"/>
<path fill-rule="evenodd" clip-rule="evenodd" d="M111 599C112.105 599 113 599.895 113 601V705C113 706.105 112.105 707 111 707C109.895 707 109 706.105 109 705V601C109 599.895 109.895 599 111 599Z" fill="#184D47"/>
<path fill-rule="evenodd" clip-rule="evenodd" d="M119.366 615.708C120.512 615.941 121.252 617.059 121.018 618.205L100.32 719.9C100.087 721.046 98.969 721.786 97.8231 721.553C96.6773 721.319 95.9374 720.201 96.1706 719.056L116.869 617.36C117.102 616.214 118.22 615.474 119.366 615.708Z" fill="#184D47"/>
<path fill-rule="evenodd" clip-rule="evenodd" d="M80.5064 573.981C83.4406 573.195 86.4566 574.936 87.2428 577.87L112.352 671.579C113.138 674.513 111.397 677.529 108.463 678.316C105.529 679.102 102.513 677.361 101.726 674.426L76.6172 580.717C75.831 577.783 77.5722 574.767 80.5064 573.981Z" fill="#184D47"/>
<path d="M850 640H-496V731H850V640Z" fill="white"/>
<path fill-rule="evenodd" clip-rule="evenodd" d="M435 565C274.97 715 96.257 589.444 -70 589.444L-63.772 645H435V565Z" fill="white"/>
<mask id="mask9_104_371" style="mask-type:luminance" maskUnits="userSpaceOnUse" x="139" y="446" width="100" height="100">
<path d="M239 446H139V546H239V446Z" fill="white"/>
</mask>
<g mask="url(#mask9_104_371)">
<mask id="mask10_104_371" style="mask-type:luminance" maskUnits="userSpaceOnUse" x="139" y="446" width="101" height="100">
<path d="M240 446H139V546H240V446Z" fill="white"/>
</mask>
<g mask="url(#mask10_104_371)">
<mask id="mask11_104_371" style="mask-type:luminance" maskUnits="userSpaceOnUse" x="139" y="446" width="101" height="100">
<path d="M240 446H139V546H240V446Z" fill="white"/>
</mask>
<g mask="url(#mask11_104_371)">
<path d="M221.292 525.167L202.542 496L214 499.125L200.458 478.292L208.792 479.333L189 450.167L169.208 479.333L177.542 478.292L164 499.125L175.458 496L156.708 525.167L184.833 519.958V541.833H193.167V519.958L221.292 525.167Z" fill="#14D253"/>
</g>
</g>
</g>
<mask id="mask12_104_371" style="mask-type:luminance" maskUnits="userSpaceOnUse" x="5" y="413" width="99" height="100">
<path d="M104 413H5V513H104V413Z" fill="white"/>
</mask>
<g mask="url(#mask12_104_371)">
<mask id="mask13_104_371" style="mask-type:luminance" maskUnits="userSpaceOnUse" x="5" y="413" width="99" height="100">
<path d="M104 413H5V513H104V413Z" fill="white"/>
</mask>
<g mask="url(#mask13_104_371)">
<mask id="mask14_104_371" style="mask-type:luminance" maskUnits="userSpaceOnUse" x="5" y="413" width="99" height="100">
<path d="M104 413H5V513H104V413Z" fill="white"/>
</mask>
<g mask="url(#mask14_104_371)">
<path d="M86.4689 492.166L67.9062 463L79.25 466.125L65.8438 445.292L74.0939 446.333L54.5 417.167L34.9062 446.333L43.1562 445.292L29.75 466.125L41.0938 463L22.5312 492.166L50.375 486.958V508.833H58.625V486.958L86.4689 492.166Z" fill="#2D8731"/>
</g>
</g>
</g>
<mask id="mask15_104_371" style="mask-type:luminance" maskUnits="userSpaceOnUse" x="262" y="408" width="106" height="106">
<path d="M368 408H262V514H368V408Z" fill="white"/>
</mask>
<g mask="url(#mask15_104_371)">
<mask id="mask16_104_371" style="mask-type:luminance" maskUnits="userSpaceOnUse" x="262" y="408" width="106" height="106">
<path d="M368 408H262V514H368V408Z" fill="white"/>
</mask>
<g mask="url(#mask16_104_371)">
<mask id="mask17_104_371" style="mask-type:luminance" maskUnits="userSpaceOnUse" x="262" y="408" width="106" height="106">
<path d="M368 408H262V514H368V408Z" fill="white"/>
</mask>
<g mask="url(#mask17_104_371)">
<path d="M349.229 491.917L329.354 461L341.5 464.312L327.146 442.229L335.979 443.333L315 412.417L294.021 443.333L302.854 442.229L288.5 464.312L300.646 461L280.771 491.917L310.583 486.396V509.583H319.417V486.396L349.229 491.917Z" fill="#236F2C"/>
</g>
</g>
</g>
<mask id="mask18_104_371" style="mask-type:luminance" maskUnits="userSpaceOnUse" x="195" y="403" width="108" height="108">
<path d="M303 403H195V511H303V403Z" fill="white"/>
</mask>
<g mask="url(#mask18_104_371)">
<mask id="mask19_104_371" style="mask-type:luminance" maskUnits="userSpaceOnUse" x="195" y="403" width="108" height="108">
<path d="M303 403H195V511H303V403Z" fill="white"/>
</mask>
<g mask="url(#mask19_104_371)">
<mask id="mask20_104_371" style="mask-type:luminance" maskUnits="userSpaceOnUse" x="195" y="403" width="108" height="108">
<path d="M303 403H195V511H303V403Z" fill="white"/>
</mask>
<g mask="url(#mask20_104_371)">
<path d="M287.025 439.9C285.675 435.4 282.75 431.575 278.7 429.212C278.7 428.875 278.7 428.538 278.7 428.2C278.812 420.55 272.513 414.25 264.75 414.25C262.388 414.25 260.25 414.812 258.337 415.825C255.75 412.112 251.587 409.75 246.75 409.75C240.562 409.75 235.275 413.8 233.363 419.425C231.337 418.3 228.975 417.625 226.5 417.625C218.738 417.625 212.438 423.925 212.438 431.688C212.438 434.612 213.337 437.312 214.913 439.562C207.6 441.475 202.312 448 202.312 455.875C202.312 465.212 209.85 472.75 219.188 472.75C220.538 472.75 221.887 472.525 223.238 472.3C228.637 474.775 240.562 481.975 241.125 490.188L240.675 500.875C240.675 501.438 240.45 502 240 502.45L238.988 503.462C238.312 504.25 238.762 505.375 239.775 505.375H252.15C253.05 505.375 253.5 504.475 253.163 503.688C253.163 503.688 252.6 502.562 252.262 502.225C251.925 501.775 251.587 501.325 251.587 500.65L251.137 487.038C251.137 486.925 251.25 486.812 251.25 486.812C252.15 482.763 257.55 480.062 263.288 477.25C269.025 474.438 275.775 471.062 277.913 465.212C279.263 465.663 280.725 466 282.3 466C289.725 466 295.8 459.925 295.8 452.5C295.688 446.763 292.087 441.812 287.025 439.9ZM246.525 474.212C246.188 471.4 245.512 468.025 244.163 464.763C246.975 464.425 249.562 463.525 251.812 462.175C249.45 466.225 247.65 470.612 246.525 474.212ZM229.538 469.15C231.562 467.575 233.25 465.438 234.488 463.075C235.5 463.525 236.512 463.975 237.637 464.2C240.562 469.038 241.125 474.55 241.125 478.038C237.525 474.212 232.913 471.175 229.538 469.15ZM260.7 472.188C257.438 473.763 254.062 475.45 251.363 477.475C252.825 472.862 255.413 465.888 259.462 460.825C262.275 462.625 265.65 463.638 269.25 463.638C270.375 463.638 271.388 463.525 272.4 463.3C271.163 466.788 266.775 469.15 260.7 472.188Z" fill="#0E9039"/>
</g>
</g>
</g>
<mask id="mask21_104_371" style="mask-type:luminance" maskUnits="userSpaceOnUse" x="-8" y="439" width="79" height="79">
<path d="M71 439H-8V518H71V439Z" fill="white"/>
</mask>
<g mask="url(#mask21_104_371)">
<mask id="mask22_104_371" style="mask-type:luminance" maskUnits="userSpaceOnUse" x="-8" y="439" width="79" height="79">
<path d="M71 439H-8V518H71V439Z" fill="white"/>
</mask>
<g mask="url(#mask22_104_371)">
<mask id="mask23_104_371" style="mask-type:luminance" maskUnits="userSpaceOnUse" x="-8" y="439" width="79" height="79">
<path d="M71 439H-8V518H71V439Z" fill="white"/>
</mask>
<g mask="url(#mask23_104_371)">
<path d="M57.0103 501.542L42.1978 478.5L51.2499 480.969L40.552 464.51L47.1353 465.333L31.4999 442.292L15.8645 465.333L22.4478 464.51L11.7499 480.969L20.802 478.5L5.9895 501.542L28.2082 497.427V514.708H34.7916V497.427L57.0103 501.542Z" fill="#215D27"/>
</g>
</g>
</g>
<mask id="mask24_104_371" style="mask-type:luminance" maskUnits="userSpaceOnUse" x="81" y="455" width="108" height="108">
<path d="M189 455H81V563H189V455Z" fill="white"/>
</mask>
<g mask="url(#mask24_104_371)">
<mask id="mask25_104_371" style="mask-type:luminance" maskUnits="userSpaceOnUse" x="81" y="455" width="108" height="108">
<path d="M189 455H81V563H189V455Z" fill="white"/>
</mask>
<g mask="url(#mask25_104_371)">
<mask id="mask26_104_371" style="mask-type:luminance" maskUnits="userSpaceOnUse" x="81" y="455" width="108" height="108">
<path d="M189 455H81V563H189V455Z" fill="white"/>
</mask>
<g mask="url(#mask26_104_371)">
<path d="M173.025 491.9C171.675 487.4 168.75 483.575 164.7 481.212C164.7 480.875 164.7 480.538 164.7 480.2C164.812 472.55 158.513 466.25 150.75 466.25C148.388 466.25 146.25 466.812 144.337 467.825C141.75 464.112 137.587 461.75 132.75 461.75C126.562 461.75 121.275 465.8 119.363 471.425C117.337 470.3 114.975 469.625 112.5 469.625C104.738 469.625 98.4375 475.925 98.4375 483.688C98.4375 486.612 99.3375 489.312 100.912 491.562C93.6 493.475 88.3125 500 88.3125 507.875C88.3125 517.213 95.85 524.75 105.188 524.75C106.537 524.75 107.887 524.525 109.238 524.3C114.637 526.775 126.562 533.975 127.125 542.188L126.675 552.875C126.675 553.438 126.45 554 126 554.45L124.988 555.463C124.312 556.25 124.762 557.375 125.775 557.375H138.15C139.05 557.375 139.5 556.475 139.163 555.688C139.163 555.688 138.6 554.562 138.262 554.225C137.925 553.775 137.587 553.325 137.587 552.65L137.137 539.037C137.137 538.925 137.25 538.812 137.25 538.812C138.15 534.763 143.55 532.062 149.288 529.25C155.025 526.438 161.775 523.062 163.913 517.213C165.263 517.662 166.725 518 168.3 518C175.725 518 181.8 511.925 181.8 504.5C181.688 498.763 178.087 493.812 173.025 491.9ZM132.525 526.213C132.188 523.4 131.512 520.025 130.163 516.763C132.975 516.425 135.562 515.525 137.812 514.175C135.45 518.225 133.65 522.612 132.525 526.213ZM115.538 521.15C117.562 519.575 119.25 517.438 120.488 515.075C121.5 515.525 122.512 515.975 123.637 516.2C126.562 521.037 127.125 526.55 127.125 530.037C123.525 526.213 118.913 523.175 115.538 521.15ZM146.7 524.188C143.438 525.763 140.062 527.45 137.363 529.475C138.825 524.862 141.413 517.888 145.462 512.825C148.275 514.625 151.65 515.638 155.25 515.638C156.375 515.638 157.388 515.525 158.4 515.3C157.163 518.787 152.775 521.15 146.7 524.188Z" fill="#236F2C"/>
</g>
</g>
</g>
<mask id="mask27_104_371" style="mask-type:luminance" maskUnits="userSpaceOnUse" x="234" y="283" width="62" height="62">
<path d="M296 283H234V345H296V283Z" fill="white"/>
</mask>
<g mask="url(#mask27_104_371)">
<mask id="mask28_104_371" style="mask-type:luminance" maskUnits="userSpaceOnUse" x="234" y="283" width="62" height="62">
<path d="M296 283H234V345H296V283Z" fill="white"/>
</mask>
<g mask="url(#mask28_104_371)">
<mask id="mask29_104_371" style="mask-type:luminance" maskUnits="userSpaceOnUse" x="234" y="283" width="62" height="62">
<path d="M296 283H234V345H296V283Z" fill="white"/>
</mask>
<g mask="url(#mask29_104_371)">
<path d="M287.604 299.146H269.521V298.5C269.521 297.787 268.943 297.208 268.229 297.208C267.516 297.208 266.938 297.787 266.938 298.5V299.146H248.854C248.141 299.146 247.562 299.724 247.562 300.438C247.562 301.151 248.141 301.729 248.854 301.729H266.938V305.604H263.405L262.242 307.542H244.882L240.581 303.24C240.053 302.76 239.236 302.799 238.756 303.327C238.31 303.818 238.308 304.569 238.753 305.062L243.042 309.369V315.938C243.042 316.651 243.62 317.229 244.333 317.229C245.047 317.229 245.625 316.651 245.625 315.938V310.125H259.188V315.938C259.188 319.47 262.236 322.751 265.646 323.688H267.196L265.323 328.208H255.958V330.792H282.76C284.013 330.792 287.281 329.862 287.281 325.625H284.698C284.698 327.969 283.2 328.208 282.76 328.208H278.24L276.373 323.688H278.575C285.389 323.688 283.904 316.054 283.904 316.054C283.904 316.054 282.134 308.678 273.396 308.188L271.833 305.604H269.521V301.729H287.604C288.318 301.729 288.896 301.151 288.896 300.438C288.896 299.724 288.318 299.146 287.604 299.146ZM275.475 328.208H268.119L269.992 323.688H273.609L275.475 328.208ZM281.417 316.629C281.447 316.828 281.467 317.028 281.475 317.229H275.017L273.079 310.771C279.893 311.1 281.333 316.293 281.417 316.629Z" fill="#176BB1"/>
</g>
</g>
</g>
</g>
</g>
</g>
<defs>
<filter id="filter0_f_104_371" x="-58.1111" y="431.142" width="494.222" height="296.383" filterUnits="userSpaceOnUse" color-interpolation-filters="sRGB">
<feFlood flood-opacity="0" result="BackgroundImageFix"/>
<feBlend mode="normal" in="SourceGraphic" in2="BackgroundImageFix" result="shape"/>
<feGaussianBlur stdDeviation="11.5556" result="effect1_foregroundBlur_104_371"/>
</filter>
<clipPath id="clip0_104_371">
<rect width="378" height="641" fill="white"/>
</clipPath>
<clipPath id="clip1_104_371">
<rect width="378" height="720" fill="white"/>
</clipPath>
</defs>
</svg>
